<?xml version="1.0" encoding="UTF-8"?><svg id="a" xmlns="http://www.w3.org/2000/svg" viewBox="0 0 1920 1080"><defs><style>.b{stroke:#010101;stroke-miterlimit:10;stroke-width:5px;}.b,.c,.d,.e,.f,.g,.h,.i,.j,.k,.l,.m,.n,.o,.p,.q,.r,.s,.t,.u,.v,.w,.x,.y,.z,.aa,.ab,.ac,.ad,.ae,.af,.ag,.ah,.ai,.aj,.ak{fill:none;}.c{stroke:#171615;}.c,.d,.e,.f,.g,.h,.i,.j,.k,.l,.m,.n,.o,.p,.q,.r,.s,.t,.u,.v,.w,.x,.y,.z,.aa,.ab,.ac,.ae,.af,.ag,.ah,.aj,.ak{stroke-miterlimit:10;stroke-width:5px;}.d{stroke:#131312;}.e{stroke:#121211;}.f{stroke:#161615;}.g{stroke:#181817;}.h{stroke:#0f0f0e;}.i{stroke:#0d0d0d;}.j{stroke:#111110;}.k{stroke:#191918;}.l{stroke:#151514;}.m{stroke:#1c1c1b;}.n{stroke:#10100f;}.o{stroke:#100f0f;}.p{stroke:#1b1b1a;}.q{stroke:#141413;}.r{stroke:#070707;}.s{stroke:#090909;}.t{stroke:#090908;}.u{stroke:#080807;}.v{stroke:#0e0e0d;}.w{stroke:#171716;}.x{stroke:#0a0a0a;}.y{stroke:#1a1a19;}.z{stroke:#1a1a18;}.aa{stroke:#0b0b0a;}.ab{stroke:#0c0c0c;}.ac{stroke:#0c0c0b;}.ad{stroke:#030303;}.ad,.ai{stroke-miterlimit:10;stroke-width:5px;}.ae{stroke:#040404;}.af{stroke:#060606;}.ag{stroke:#020201;}.ah{stroke:#020202;}.ai{stroke:#050504;}.aj{stroke:#050505;}.ak{stroke:#000;}</style></defs><circle class="ak" cx="960.5" cy="1080.5" r="31"/><circle class="b" cx="960.48" cy="1074.48" r="53.33"/><circle class="ag" cx="960.46" cy="1068.46" r="75.66"/><circle class="ah" cx="960.44" cy="1062.44" r="98"/><circle class="ad" cx="960.41" cy="1056.42" r="120.33"/><circle class="ae" cx="960.39" cy="1050.4" r="142.66"/><circle class="ai" cx="960.37" cy="1044.38" r="164.99"/><circle class="aj" cx="960.35" cy="1038.37" r="187.32"/><circle class="af" cx="960.33" cy="1032.35" r="209.66"/><circle class="r" cx="960.31" cy="1026.33" r="231.99"/><circle class="u" cx="960.28" cy="1020.31" r="254.32"/><circle class="t" cx="960.26" cy="1014.29" r="276.65"/><circle class="s" cx="960.24" cy="1008.27" r="298.99"/><circle class="x" cx="960.22" cy="1002.25" r="321.32"/><circle class="aa" cx="960.2" cy="996.23" r="343.65"/><circle class="ac" cx="960.18" cy="990.21" r="365.98"/><circle class="ab" cx="960.15" cy="984.19" r="388.31"/><circle class="i" cx="960.13" cy="978.17" r="410.65"/><circle class="v" cx="960.11" cy="972.15" r="432.98"/><circle class="h" cx="960.09" cy="966.13" r="455.31"/><circle class="o" cx="960.07" cy="960.12" r="477.64"/><circle class="n" cx="960.05" cy="954.1" r="499.97"/><circle class="j" cx="960.02" cy="948.08" r="522.31"/><circle class="e" cx="960" cy="942.06" r="544.64"/><circle class="d" cx="959.98" cy="936.04" r="566.97"/><circle class="d" cx="959.96" cy="930.02" r="589.3"/><circle class="q" cx="959.94" cy="924" r="611.64"/><circle class="l" cx="959.92" cy="917.98" r="633.97"/><circle class="f" cx="959.89" cy="911.96" r="656.3"/><circle class="c" cx="959.87" cy="905.94" r="678.63"/><circle class="w" cx="959.85" cy="899.92" r="700.96"/><circle class="g" cx="959.83" cy="893.9" r="723.3"/><circle class="k" cx="959.81" cy="887.89" r="745.63"/><circle class="z" cx="959.79" cy="881.87" r="767.96"/><circle class="y" cx="959.77" cy="875.85" r="790.29"/><circle class="p" cx="959.74" cy="869.83" r="812.62"/><circle class="m" cx="959.72" cy="863.81" r="834.96"/><circle class="ak" cx="959.7" cy="857.79" r="857.29"/></svg>